# xmcd
#
# Track frame offsets: 
#        150
#        15127
#        29508
#        42265
#        54117
#        66447
#        79338
#        94720
#        110767
#        127706
#
# Disc length: 1876 seconds
#
# Revision: 0
# Processed by: cddbd v1.5.2PL0 Copyright (c) Steve Scherf et al.
# Submitted via: ExactAudioCopy v0.99pb4
#
DISCID=7507520a
DTITLE=Eddie Rabbitt - Rabbitt
DYEAR=1977
DGENRE=Country
TTITLE0=I'm a Little Bit Lonesome
TTITLE1=I Can't Help Myself
TTITLE2=Stop Look and Listen
TTITLE3=The Girl On My Mind
TTITLE4=Unhappy Ending
TTITLE5=Sure Thing
TTITLE6=Jewelry Store
TTITLE7=We Can't Go On Living Like This
TTITLE8=Is There a Country Song On the Jukebox?
TTITLE9=She Loves Me Like She Means It
EXTD=
EXTT0=
EXTT1=
EXTT2=
EXTT3=
EXTT4=
EXTT5=
EXTT6=
EXTT7=
EXTT8=
EXTT9=
PLAYORDER=
